# xmcd
#
# Track frame offsets:
#	150
#	15530
#	32727
#	53035
#	70627
#	87335
#	100527
#	120520
#	133252
#	146382
#
# Disc length: 2217 seconds
#
# Revision: 0
# Processed by: cddbd v1.4PL0 Copyright (c) Steve Scherf et al.
# Submitted via: EasyCDDAExtractor 4.6.0.1
#
DISCID=7a08a70a
DTITLE=Hal Ketchum - Every Little Word
DYEAR=1994
DGENRE=Country
TTITLE0=(Tonight We Just Might) Fall In Love Again
TTITLE1=Every Little Word
TTITLE2=Swing Low
TTITLE3=Another Day Gone
TTITLE4=That's What I Get For Losin' You
TTITLE5=Stay Forever
TTITLE6=Walk Away
TTITLE7=Veil Of Tears
TTITLE8=No Easy Road
TTITLE9=Drive On
EXTD=
EXTT0=
EXTT1=
EXTT2=
EXTT3=
EXTT4=
EXTT5=
EXTT6=
EXTT7=
EXTT8=
EXTT9=
PLAYORDER=
